<?xml version="1.0" encoding="utf-8"?>
<!-- Generator: Adobe Illustrator 19.2.0, SVG Export Plug-In . SVG Version: 6.00 Build 0)  -->
<svg version="1.1" id="Layer_1" xmlns="http://www.w3.org/2000/svg" xmlns:xlink="http://www.w3.org/1999/xlink" x="0px" y="0px"
	 viewBox="0 0 90.8 90.8" style="enable-background:new 0 0 90.8 90.8;" xml:space="preserve">
<style type="text/css">
	.st0{fill:#FFFFFF;}
	.st1{fill:#29ADE4;}
	.st2{fill:none;stroke:#29ADE4;stroke-width:2;stroke-linecap:round;stroke-miterlimit:10;}
	.st3{enable-background:new    ;}
</style>
<g>
	<path class="st0" d="M45.4,88.7C21.5,88.7,2,69.3,2,45.3C2,21.4,21.4,1.9,45.4,1.9c23.9,0,43.4,19.4,43.4,43.4
		C88.8,69.2,69.3,88.7,45.4,88.7z"/>
	<path class="st1" d="M45.4,4c22.8,0,41.4,18.6,41.4,41.4S68.2,86.8,45.4,86.8S4,68.2,4,45.4S22.6,4,45.4,4 M45.4,0
		C20.4,0,0,20.3,0,45.4c0,25,20.3,45.4,45.4,45.4s45.4-20.3,45.4-45.4S70.4,0,45.4,0L45.4,0z"/>
</g>
<circle class="st1" cx="45.4" cy="45.4" r="22.3"/>
<line class="st2" x1="20.2" y1="20.2" x2="70.6" y2="70.6"/>
<line class="st2" x1="70.6" y1="20.2" x2="20.2" y2="70.6"/>
<g class="st3">
	<path class="st0" d="M55,49.9c0,2.4-1,4.3-3,5.6c-1.7,1.1-3.8,1.7-6.3,1.7c-2,0-3.6-0.1-4.8-0.4c-2.7-0.6-4.1-1.1-4.1-1.5
		c0-0.1,0-0.2,0.1-0.4c0.2-0.5,0.4-1.2,0.8-2.2c0.1-0.5,0.3-1.2,0.5-2.1c0.1-0.3,0.3-0.5,0.6-0.5c0,0,0.5,0.2,1.7,0.6
		c1.2,0.4,2.2,0.6,3,0.6c2.6,0,3.8-0.9,3.8-2.6c0-1.4-1.2-2.1-3.6-2.1c-0.3,0-0.8,0-1.3,0c-0.5,0-0.9,0-1.1,0c-0.8,0-1.2,0-1.3,0
		c-0.6-0.1-0.9-0.3-0.9-0.7c0-2,0.1-3.2,0.2-3.8c0.1-0.3,0.3-0.5,0.6-0.5c0.4,0,1.1,0.1,2,0.2c0.9,0.1,1.5,0.2,1.9,0.2
		c0.6,0,1-0.2,1.4-0.6s0.6-0.8,0.6-1.4c0-1.5-1.1-2.3-3.4-2.3c-0.9,0-2.2,0.3-3.8,0.8c-0.1,0-0.1,0-0.2,0c-0.2,0-0.3-0.2-0.4-0.5
		c0-0.5-0.1-1.2-0.1-1.9c0-0.2-0.1-0.5-0.1-0.9c-0.1-0.4-0.1-0.7-0.1-0.9c0-0.7,1.1-1.2,3.2-1.6c1.5-0.3,2.9-0.4,4.3-0.4
		c2.2,0,4.2,0.5,5.8,1.5c2,1.2,3,2.8,3,4.9c0,2.4-1.1,4.2-3.2,5.4c1.3,0.4,2.3,1.2,3,2.2C54.6,47.4,55,48.5,55,49.9z"/>
</g>
</svg>
