<?xml version="1.0" encoding="utf-8"?>
<!-- Generator: Adobe Illustrator 19.2.0, SVG Export Plug-In . SVG Version: 6.00 Build 0)  -->
<svg version="1.1" id="Layer_1" xmlns="http://www.w3.org/2000/svg" xmlns:xlink="http://www.w3.org/1999/xlink" x="0px" y="0px"
	 viewBox="0 0 90.8 90.8" style="enable-background:new 0 0 90.8 90.8;" xml:space="preserve">
<style type="text/css">
	.st0{fill:#BFBFBF;}
</style>
<g>
	<path class="st0" d="M45.4,4c22.8,0,41.4,18.6,41.4,41.4S68.2,86.8,45.4,86.8S4,68.2,4,45.4S22.6,4,45.4,4 M45.4,0
		C20.4,0,0,20.3,0,45.4s20.3,45.4,45.4,45.4s45.4-20.3,45.4-45.4S70.4,0,45.4,0L45.4,0z"/>
</g>
<g>
	<circle class="st0" cx="27" cy="24.3" r="3.6"/>
	<circle class="st0" cx="36.2" cy="24.3" r="3.6"/>
	<circle class="st0" cx="45.4" cy="24.3" r="3.6"/>
	<circle class="st0" cx="54.6" cy="24.3" r="3.6"/>
	<circle class="st0" cx="63.8" cy="24.3" r="3.6"/>
</g>
<g>
	<circle class="st0" cx="27" cy="34.9" r="3.6"/>
	<circle class="st0" cx="36.2" cy="34.9" r="3.6"/>
	<circle class="st0" cx="45.4" cy="34.9" r="3.6"/>
	<circle class="st0" cx="54.6" cy="34.9" r="3.6"/>
	<circle class="st0" cx="63.8" cy="34.9" r="3.6"/>
</g>
<g>
	<circle class="st0" cx="27" cy="45.5" r="3.6"/>
	<circle class="st0" cx="36.2" cy="45.5" r="3.6"/>
	<circle class="st0" cx="45.4" cy="45.5" r="3.6"/>
	<circle class="st0" cx="54.6" cy="45.5" r="3.6"/>
	<circle class="st0" cx="63.8" cy="45.5" r="3.6"/>
</g>
<g>
	<circle class="st0" cx="27" cy="56.1" r="3.6"/>
	<circle class="st0" cx="36.2" cy="56.1" r="3.6"/>
	<circle class="st0" cx="45.4" cy="56.1" r="3.6"/>
	<circle class="st0" cx="54.6" cy="56.1" r="3.6"/>
	<circle class="st0" cx="63.8" cy="56.1" r="3.6"/>
</g>
<g>
	<circle class="st0" cx="27" cy="66.6" r="3.6"/>
	<circle class="st0" cx="36.2" cy="66.6" r="3.6"/>
	<circle class="st0" cx="45.4" cy="66.6" r="3.6"/>
	<circle class="st0" cx="54.6" cy="66.6" r="3.6"/>
	<circle class="st0" cx="63.8" cy="66.6" r="3.6"/>
</g>
</svg>
