<?xml version="1.0" encoding="utf-8"?>
<!-- Generator: Adobe Illustrator 19.2.0, SVG Export Plug-In . SVG Version: 6.00 Build 0)  -->
<svg version="1.1" id="Layer_1" xmlns="http://www.w3.org/2000/svg" xmlns:xlink="http://www.w3.org/1999/xlink" x="0px" y="0px"
	 viewBox="0 0 90.8 90.8" style="enable-background:new 0 0 90.8 90.8;" xml:space="preserve">
<style type="text/css">
	.st0{fill:#FFFFFF;}
	.st1{fill:#BFBFBF;}
	.st2{fill:#BFBFBF;stroke:#BFBFBF;stroke-width:11;stroke-miterlimit:10;}
</style>
<g>
	<path class="st0" d="M45.4,88.7C21.5,88.7,2,69.3,2,45.3S21.4,1.9,45.4,1.9c23.9,0,43.4,19.4,43.4,43.4S69.3,88.7,45.4,88.7z"/>
	<path class="st1" d="M45.4,4c22.8,0,41.4,18.6,41.4,41.4S68.2,86.8,45.4,86.8S4,68.2,4,45.4S22.6,4,45.4,4 M45.4,0
		C20.4,0,0,20.3,0,45.4s20.3,45.4,45.4,45.4s45.4-20.3,45.4-45.4S70.4,0,45.4,0L45.4,0z"/>
</g>
<line class="st2" x1="15.1" y1="46.2" x2="75.7" y2="46.2"/>
<circle class="st1" cx="45.4" cy="28.2" r="7.3"/>
<circle class="st1" cx="45.4" cy="64.3" r="7.3"/>
</svg>
