<?xml version="1.0" encoding="utf-8"?>
<svg id="Layer_1" style="enable-background:new 0 0 90.8 90.8;" x="0px" y="0px" viewBox="0 0 90.8 90.8" xmlns="http://www.w3.org/2000/svg">
  <style type="text/css">
	.st0{fill:#FFFFFF;}
</style>
  <g>
    <g>
      <path class="st0" d="M59.7,84.1H41.8c-11,0-17.9-12.9-18.2-13.3L11.2,45.6c-0.9-1.7-0.1-3.8,1.6-4.7c1-0.5,1.8-0.5,2.8-0.2&#10;&#9;&#9;&#9;c3.7,1.5,7.3,8.8,8.8,13.1l1.1,3.2l5.8-2V10.1c0-1.8,1.5-3.4,3.4-3.4c1.8,0,3.4,1.5,3.4,3.4v38.7h6.8v-17c0-1.9,1.7-3.6,3.5-3.6&#10;&#9;&#9;&#9;c1.9,0,3.6,1.6,3.6,3.4v18.3h6.7V38.3c0-1.8,1.5-3.4,3.4-3.4c1.8,0,3.4,1.5,3.4,3.4V53h6.7v-7.4c0-1.8,1.5-3.4,3.4-3.4&#10;&#9;&#9;&#9;c1.8,0,3.4,1.5,3.4,3.4v4.8l0,0v14.7C78.6,75.6,70.1,84.1,59.7,84.1L59.7,84.1z"/>
    </g>
  </g>
  <g>
    <g>
      <path d="M85.3,46.6v-0.9c0-5.5-4.5-10.1-10.1-10.1c-1.3,0-2.5,0.2-3.6,0.7c-0.9-4.6-5-8-9.9-8c-1.3,0-2.6,0.3-3.7,0.7&#10;&#9;&#9;&#9;c-1.2-4.2-5.3-7.4-9.9-7.4c-1.3,0-2.5,0.2-3.6,0.7V10.1C44.6,4.5,40,0,34.5,0S24.4,4.5,24.4,10.1v29.6c-1.8-2.2-3.9-4.2-6.3-5.2&#10;&#9;&#9;&#9;c-2.7-1.1-5.6-1-8.3,0.4c-5,2.5-7.1,8.7-4.6,13.7l12.5,25.3c0.4,0.7,8.8,17,24.2,17h17.9c14.1,0,25.6-11.5,25.6-25.7L85.3,46.6&#10;&#9;&#9;&#9;L85.3,46.6z M59.7,84.1H41.8c-11,0-17.9-12.9-18.2-13.3L11.2,45.6c-0.9-1.7-0.1-3.8,1.6-4.7c1-0.5,1.8-0.5,2.8-0.2&#10;&#9;&#9;&#9;c3.7,1.5,7.3,8.8,8.8,13.1l1.1,3.2l5.8-2V10.1c0-1.8,1.5-3.4,3.4-3.4c1.8,0,3.4,1.5,3.4,3.4v38.7h6.8v-17c0-1.9,1.7-3.6,3.5-3.6&#10;&#9;&#9;&#9;c1.9,0,3.6,1.6,3.6,3.4v18.3h6.7V38.3c0-1.8,1.5-3.4,3.4-3.4c1.8,0,3.4,1.5,3.4,3.4V53h6.7v-7.4c0-1.8,1.5-3.4,3.4-3.4&#10;&#9;&#9;&#9;c1.8,0,3.4,1.5,3.4,3.4v4.8l0,0v14.7C78.6,75.6,70.1,84.1,59.7,84.1L59.7,84.1z" style="fill: rgb(230, 76, 102);"/>
    </g>
  </g>
</svg>