<?xml version="1.0" encoding="utf-8"?>
<svg id="Layer_1" style="enable-background:new -260 351.3 90.7 90.7;" x="0px" y="0px" viewBox="-260 351.3 90.7 90.7" xmlns="http://www.w3.org/2000/svg">
  <style type="text/css">
	.st0{fill:#29ADE4;}
	.st1{fill:none;}
	.st2{fill:#FFFFFF;}
	.st3{fill:#29ADE4;stroke:url(#SVGID_1_);stroke-width:2;stroke-miterlimit:10;}
</style>
  <polygon class="st1" points="-247.8,362.9 -253.3,363.6 -256.7,359.1 -254.5,353.9 -248.9,353.3 -245.5,357.8 "/>
  <polygon class="st1" points="-248.5,360.4 -246,361 -245.2,363.5 -247,365.4 -249.5,364.8 -250.3,362.3 "/>
  <path class="st0" d="M -214.4 355.5 C -191.6 355.5 -173 374.1 -173 396.9 C -173 419.7 -191.6 438.3 -214.4 438.3 C -237.2 438.3 -255.8 419.7 -255.8 396.9 C -255.8 374.1 -237.2 355.5 -214.4 355.5 M -214.4 351.5 C -239.4 351.5 -259.8 371.8 -259.8 396.9 C -259.8 421.9 -239.5 442.3 -214.4 442.3 C -189.3 442.3 -169 422 -169 396.9 C -169 371.8 -189.4 351.5 -214.4 351.5 L -214.4 351.5 Z"/>
  <path d="M -238.5 387 L -190.6 387 L -190.6 422.6 L -206.9 422.6 L -206.9 399.8 L -221.9 399.8 L -221.9 422.6 L -238.5 422.6 Z" class="st0"/>
  <rect x="-201.1" y="371.4" class="st0" width="7" height="13.5"/>
  <line class="st1" x1="-245.3" y1="385.5" x2="-214.7" y2="363"/>
  <line class="st1" x1="-214.7" y1="363" x2="-185.3" y2="387"/>
  <line class="st1" x1="-218.7" y1="379" x2="-189.2" y2="403"/>
  <line class="st1" x1="-206.9" y1="388.6" x2="-208.8" y2="371"/>
  <line class="st1" x1="-223.6" y1="369.6" x2="-231" y2="375"/>
  <line class="st1" x1="-224.5" y1="365.2" x2="-197.1" y2="369.6"/>
  <polygon class="st0" points="-243.4 390.3 -214.3 366.8 -185.3 390.3"/>
  <rect x="-219.608" y="401.383" class="st3" width="10.484" height="21.217" style="stroke: none;"/>
</svg>