<?xml version="1.0" encoding="utf-8"?>
<svg id="Layer_1" x="0px" y="0px" width="512px" height="512px" viewBox="0 0 512 512" xmlns="http://www.w3.org/2000/svg">
  <defs>
    <pattern id="pattern-0" x="0" y="0" width="20" height="20" patternUnits="userSpaceOnUse" viewBox="0 0 100 100">
      <path d="M 0 0 L 50 0 L 50 100 L 0 100 Z" style="fill: black;"/>
    </pattern>
  </defs>
  <path d="M 223.214 126.369 L 187.495 162.089 L 310.422 285.032 C 355.087 260.957 411.723 267.271 449.48 304.964 C 495.461 351.011 495.461 425.672 449.48 471.652 C 403.434 517.698 328.773 517.698 282.728 471.652 C 245.035 433.959 238.754 377.257 262.813 332.656 L 20.789 90.585 C 7.683 77.494 7.683 56.05 20.789 42.96 C 33.88 29.87 55.325 29.87 68.414 42.96 L 104.133 7.241 C 110.712 0.663 121.369 0.663 127.947 7.241 L 151.76 31.054 C 158.354 37.631 158.354 48.288 151.76 54.866 L 116.041 90.585 L 139.854 114.464 L 175.589 78.68 C 182.167 72.102 192.824 72.102 199.402 78.68 L 223.214 102.492 C 229.792 109.136 229.792 119.725 223.214 126.369 Z M 330.353 424.025 C 350.088 443.76 382.123 443.76 401.857 424.025 C 421.525 404.357 421.525 372.256 401.857 352.589 C 382.123 332.92 350.088 332.92 330.353 352.589 C 310.685 372.257 310.685 404.358 330.353 424.025 Z" style="fill: rgb(253, 216, 69); stroke-width: 12;" transform="matrix(-0.998351, 0.057409, -0.057409, -0.998351, 517.608252, 503.491045)"/>
</svg>