<?xml version="1.0" encoding="utf-8"?>
<svg id="Layer_1" x="0px" y="0px" width="512px" height="512px" viewBox="0 0 512 512" xmlns="http://www.w3.org/2000/svg">
  <defs>
    <pattern id="pattern-0" x="0" y="0" width="20" height="20" patternUnits="userSpaceOnUse" viewBox="0 0 100 100">
      <path d="M 0 0 L 50 0 L 50 100 L 0 100 Z" style="fill: black;"/>
    </pattern>
  </defs>
  <path d="M 232.969 125.125 L 199.031 159.063 L 315.828 275.875 C 358.266 253 412.078 259 447.953 294.813 C 491.641 338.563 491.641 409.501 447.953 453.188 C 404.203 496.938 333.265 496.938 289.515 453.188 C 253.702 417.375 247.734 363.5 270.593 321.125 L 40.64 91.125 C 28.187 78.687 28.187 58.312 40.64 45.875 C 53.078 33.437 73.453 33.437 85.89 45.875 L 119.828 11.937 C 126.078 5.687 136.203 5.687 142.453 11.937 L 165.078 34.562 C 171.344 40.812 171.344 50.937 165.078 57.187 L 131.141 91.125 L 153.766 113.813 L 187.719 79.813 C 193.969 73.563 204.094 73.563 210.344 79.813 L 232.969 102.438 C 239.219 108.75 239.219 118.812 232.969 125.125 Z M 334.766 407.937 C 353.516 426.687 383.954 426.687 402.704 407.937 C 421.392 389.249 421.392 358.749 402.704 340.062 C 383.954 321.374 353.516 321.374 334.766 340.062 C 316.078 358.75 316.078 389.25 334.766 407.937 Z" style="fill: rgb(255, 255, 255); stroke: rgb(191, 191, 191); stroke-width: 24;" transform="matrix(-1, 0, 0, -1, 519.828024, 502.624981)"/>
</svg>