<?xml version="1.0" encoding="utf-8"?>
<svg id="Layer_1" x="0px" y="0px" width="512px" height="512px" viewBox="0 0 512 512" xmlns="http://www.w3.org/2000/svg">
  <defs>
    <pattern id="pattern-0" x="0" y="0" width="20" height="20" patternUnits="userSpaceOnUse" viewBox="0 0 100 100">
      <path d="M 0 0 L 50 0 L 50 100 L 0 100 Z" style="fill: black;"/>
    </pattern>
  </defs>
  <path d="M 223.214 126.371 L 187.495 162.091 L 310.422 285.033 C 355.087 260.958 411.723 267.272 449.48 304.965 C 495.461 351.011 495.461 425.672 449.48 471.652 C 403.434 517.698 328.773 517.698 282.728 471.652 C 245.035 433.959 238.754 377.257 262.813 332.657 L 20.791 90.587 C 7.685 77.496 7.685 56.052 20.791 42.962 C 33.882 29.872 55.327 29.872 68.416 42.962 L 104.135 7.243 C 110.713 0.665 121.37 0.665 127.948 7.243 L 151.76 31.056 C 158.354 37.633 158.354 48.29 151.76 54.868 L 116.042 90.587 L 139.855 114.466 L 175.589 78.682 C 182.167 72.104 192.824 72.104 199.402 78.682 L 223.214 102.494 C 229.792 109.138 229.792 119.727 223.214 126.371 Z M 330.353 424.025 C 350.088 443.76 382.123 443.76 401.857 424.025 C 421.525 404.357 421.525 372.256 401.857 352.589 C 382.123 332.92 350.088 332.92 330.353 352.589 C 310.685 372.257 310.685 404.358 330.353 424.025 Z" style="stroke-width: 12; fill: rgb(255, 255, 255);" transform="matrix(-1, 0, 0, -1, 503.14602, 518.363053)"/>
</svg>