<?xml version="1.0" encoding="utf-8"?>
<svg width="257.6400146484375" height="319.656005859375" viewBox="116.18 79.172 257.64 319.656" xmlns="http://www.w3.org/2000/svg">
  <path d="M 187.45 173.086 C 187.45 137.317 213.264 108.215 244.996 108.215 C 276.729 108.215 302.551 137.317 302.551 173.086 L 302.551 229.71 L 187.45 229.71 L 187.45 173.086 Z M 158.54 229.71 L 331.46 229.71 L 331.46 165.632 C 331.46 117.957 292.674 79.172 244.996 79.172 C 197.326 79.172 158.54 117.957 158.54 165.632 L 158.54 229.71 Z M 158.54 229.71 L 331.46 229.71 L 158.54 229.71 Z M 354.25 229.71 L 158.54 229.71 L 135.749 229.71 C 124.941 229.71 116.18 238.472 116.18 249.281 L 116.18 379.257 C 116.18 390.067 124.941 398.828 135.749 398.828 L 354.25 398.828 C 365.056 398.828 373.82 390.067 373.82 379.257 L 373.82 249.281 C 373.82 238.472 365.056 229.71 354.25 229.71 Z M 267.194 356.519 L 222.805 356.519 L 231.79 311.96 C 226.366 307.914 222.805 301.504 222.805 294.215 C 222.805 281.958 232.742 272.019 245 272.019 C 257.257 272.019 267.194 281.958 267.194 294.215 C 267.194 301.504 263.633 307.914 258.207 311.96 L 267.194 356.519 Z M 302.557 189.557 L 331.46 189.557 L 331.46 229.719 L 302.557 229.719 L 302.557 189.557 Z" opacity="1" style="fill: rgb(255, 255, 255);"/>
</svg>