<?xml version="1.0" encoding="utf-8"?>
<!-- Generator: Adobe Illustrator 19.2.0, SVG Export Plug-In . SVG Version: 6.00 Build 0)  -->
<svg version="1.1" id="Layer_1" xmlns="http://www.w3.org/2000/svg" xmlns:xlink="http://www.w3.org/1999/xlink" x="0px" y="0px"
	 viewBox="0 0 90.8 90.8" style="enable-background:new 0 0 90.8 90.8;" xml:space="preserve">
<style type="text/css">
	.st0{fill:#FFFFFF;}
	.st1{fill:#BFBFBF;}
</style>
<g>
	<path class="st0" d="M45.4,88.7C21.5,88.7,2,69.3,2,45.3S21.4,1.9,45.4,1.9c23.9,0,43.4,19.4,43.4,43.4S69.3,88.7,45.4,88.7z"/>
	<path class="st1" d="M45.4,4c22.8,0,41.4,18.6,41.4,41.4S68.2,86.8,45.4,86.8S4,68.2,4,45.4S22.6,4,45.4,4 M45.4,0
		C20.4,0,0,20.3,0,45.4s20.3,45.4,45.4,45.4s45.4-20.3,45.4-45.4S70.4,0,45.4,0L45.4,0z"/>
</g>
<g>
	<g>
		<path class="st1" d="M62.9,39h-1v-4.8c0-9-7.1-16.4-16-16.6c-0.2,0-0.7,0-1,0c-8.9,0.2-16,7.6-16,16.6V39h-1
			c-1.6,0-2.9,1.6-2.9,3.7V67c0,2,1.3,3.7,2.9,3.7h35c1.6,0,2.9-1.7,2.9-3.7V42.7C65.8,40.6,64.5,39,62.9,39L62.9,39z M48.7,54.8
			v7.3c0,0.8-0.7,1.6-1.5,1.6h-3.5c-0.8,0-1.5-0.7-1.5-1.6v-7.3c-0.8-0.8-1.3-1.9-1.3-3.1c0-2.3,1.8-4.3,4.1-4.4c0.2,0,0.7,0,1,0
			c2.3,0.1,4.1,2.1,4.1,4.4C50,52.9,49.5,54,48.7,54.8L48.7,54.8z M55.1,39H35.8v-4.8c0-5.3,4.3-9.7,9.7-9.7c5.3,0,9.7,4.4,9.7,9.7
			L55.1,39L55.1,39z"/>
	</g>
</g>
</svg>
