<?xml version="1.0" encoding="utf-8"?>
<svg id="Layer_1" viewBox="0 0 512 512" xmlns="http://www.w3.org/2000/svg">
  <linearGradient gradientUnits="userSpaceOnUse" id="SVGID_1_" x1="0.0000038" x2="512" y1="256" y2="256">
    <stop offset="0" style="stop-color:#29ace4"/>
    <stop offset="1" style="stop-color:#1093CB"/>
  </linearGradient>
  <circle cx="256" cy="256" r="256" fill="url(#SVGID_1_)"/>
  <linearGradient gradientUnits="userSpaceOnUse" id="SVGID_2_" x1="42.6666679" x2="469.3333435" y1="256.0005188" y2="256.0005188">
    <stop offset="0" style="stop-color:#1093CB"/>
    <stop offset="1" style="stop-color:#29ace4"/>
  </linearGradient>
  <path d="M 256 469.334 C 138.369 469.334 42.667 373.632 42.667 256.001 C 42.667 138.37 138.369 42.667 256 42.667 C 373.636 42.667 469.333 138.37 469.333 256.001 C 469.333 373.632 373.636 469.334 256 469.334 Z" fill="url(#SVGID_2_)"/>
  <path d="M 213.632 249.555 L 386.552 249.555 L 213.632 249.555 Z" opacity="1" style="fill: rgb(255, 255, 255);"/>
  <path d="M 198.45 183.086 C 198.45 147.317 224.264 118.215 255.996 118.215 C 287.729 118.215 313.551 147.317 313.551 183.086 L 313.551 239.71 L 198.45 239.71 L 198.45 183.086 Z M 169.54 239.71 L 342.46 239.71 L 342.46 175.632 C 342.46 127.957 303.674 89.172 255.996 89.172 C 208.326 89.172 169.54 127.957 169.54 175.632 L 169.54 239.71 Z M 169.54 239.71 L 342.46 239.71 L 169.54 239.71 Z M 365.25 239.71 L 169.54 239.71 L 146.749 239.71 C 135.941 239.71 127.18 248.472 127.18 259.281 L 127.18 389.257 C 127.18 400.067 135.941 408.828 146.749 408.828 L 365.25 408.828 C 376.056 408.828 384.82 400.067 384.82 389.257 L 384.82 259.281 C 384.82 248.472 376.056 239.71 365.25 239.71 Z M 278.194 366.519 L 233.805 366.519 L 242.79 321.96 C 237.366 317.914 233.805 311.504 233.805 304.215 C 233.805 291.958 243.742 282.019 256 282.019 C 268.257 282.019 278.194 291.958 278.194 304.215 C 278.194 311.504 274.633 317.914 269.207 321.96 L 278.194 366.519 Z M 313.557 199.557 L 342.46 199.557 L 342.46 239.719 L 313.557 239.719 L 313.557 199.557 Z" opacity="0.3"/>
  <path d="M 187.45 173.086 C 187.45 137.317 213.264 108.215 244.996 108.215 C 276.729 108.215 302.551 137.317 302.551 173.086 L 302.551 229.71 L 187.45 229.71 L 187.45 173.086 Z M 158.54 229.71 L 331.46 229.71 L 331.46 165.632 C 331.46 117.957 292.674 79.172 244.996 79.172 C 197.326 79.172 158.54 117.957 158.54 165.632 L 158.54 229.71 Z M 158.54 229.71 L 331.46 229.71 L 158.54 229.71 Z M 354.25 229.71 L 158.54 229.71 L 135.749 229.71 C 124.941 229.71 116.18 238.472 116.18 249.281 L 116.18 379.257 C 116.18 390.067 124.941 398.828 135.749 398.828 L 354.25 398.828 C 365.056 398.828 373.82 390.067 373.82 379.257 L 373.82 249.281 C 373.82 238.472 365.056 229.71 354.25 229.71 Z M 267.194 356.519 L 222.805 356.519 L 231.79 311.96 C 226.366 307.914 222.805 301.504 222.805 294.215 C 222.805 281.958 232.742 272.019 245 272.019 C 257.257 272.019 267.194 281.958 267.194 294.215 C 267.194 301.504 263.633 307.914 258.207 311.96 L 267.194 356.519 Z M 302.557 189.557 L 331.46 189.557 L 331.46 229.719 L 302.557 229.719 L 302.557 189.557 Z" opacity="1" style="fill: rgb(255, 255, 255);"/>
</svg>