<?xml version="1.0" encoding="utf-8"?>
<svg id="Layer_1" style="enable-background:new 0 0 90.7 90.7;" x="0px" y="0px" viewBox="0 0 90.7 90.7" xmlns="http://www.w3.org/2000/svg">
  <style type="text/css">
	.st0{fill:#FFFFFF;}
	.st1{fill:#29ADE4;}
	.st2{fill:#29ADE4;stroke:#FFFFFF;stroke-width:2;stroke-miterlimit:10;}
</style>
  <path class="st1" d="M 0.013 64.192 L 0.013 51.504 C 0.013 49.052 2.031 47.034 4.482 47.034 L 26.11 47.034 C 28.561 47.034 30.58 49.052 30.58 51.504 L 30.58 64.192" style="fill: rgb(125, 135, 164);"/>
  <circle class="st2" cx="15.296" cy="38.094" r="13.121" style="fill: rgb(125, 135, 164); stroke: rgb(57, 66, 100);"/>
  <path class="st1" d="M 60.138 64.192 L 60.138 51.504 C 60.138 49.052 62.157 47.034 64.608 47.034 L 86.235 47.034 C 88.687 47.034 90.705 49.052 90.705 51.504 L 90.705 64.192" style="fill: rgb(125, 135, 164);"/>
  <circle class="st2" cx="94.73" cy="57.386" r="13.121" style="fill: rgb(125, 135, 164); stroke: rgb(57, 66, 100);" transform="matrix(0.999999, 0, 0, 1, -19.308043, -19.291366)"/>
  <g transform="matrix(1.441852, 0, 0, 1.441852, -19.308098, -19.291372)">
    <path class="st1" d="M51.9,42.2c0,1.4,0,2.3-0.1,2.6c-0.2,0.6-0.8,1.6-1.8,3.1c-0.8,1.2-1.6,2.2-2.2,2.9c-0.2,0.3-0.9,0.4-2,0.4&#10;&#9;&#9;c-1,0-1.6,0-1.9-0.1c-0.2,0-0.3-0.1-0.4-0.3c-0.5-0.5-1.2-1.5-2.2-2.9c-1-1.5-1.6-2.5-1.8-3c-0.2-0.6-0.3-1.5-0.3-2.6&#10;&#9;&#9;c0-0.3,0-0.8,0-1.5s0-1.2,0-1.5c0-0.2,0.1-0.3,0.4-0.3c0.4,0,1.1,0,1.9,0s1.5,0,1.9,0c0.2,0,0.3,0.1,0.3,0.4c0,0.2,0,0.6-0.1,1.1&#10;&#9;&#9;s-0.1,0.8-0.1,1.1c0,0.9,0,1.6,0.1,2.2c0,0.3,0.3,0.8,0.7,1.6c0.5,0.8,0.8,1.3,1.1,1.3c0.2,0,0.5-0.4,1-1.2&#10;&#9;&#9;c0.4-0.8,0.7-1.3,0.7-1.6c0.1-0.6,0.1-1.3,0.1-2.2c0-0.2,0-0.6-0.1-1.1s-0.1-0.9-0.1-1.1c0-0.3,0.1-0.4,0.3-0.4c0.2,0,0.5,0,0.9,0&#10;&#9;&#9;c0.4,0,0.7,0,0.9,0s0.5,0,0.9-0.1c0.4,0,0.7-0.1,0.9-0.1c0.2,0,0.4,0.1,0.4,0.3C51.8,39.7,51.9,40.7,51.9,42.2z" style="fill: rgb(125, 135, 164);"/>
  </g>
</svg>