<?xml version="1.0" encoding="utf-8"?>
<svg id="Layer_1" viewBox="0 0 90.8 90.8" xmlns="http://www.w3.org/2000/svg">
  <defs>
    <style>.cls-1{fill:#fff;}.cls-2{fill:#29ade4;}.cls-3,.cls-4{fill:#2babe2;}.cls-4{stroke-miterlimit:10;stroke-width:3px;stroke:url(#linear-gradient);}</style>
  </defs>
  <title>ResetData</title>
  <path class="cls-2" d="M45.4,4A41.4,41.4,0,1,1,4,45.4,41.48,41.48,0,0,1,45.4,4m0-4A45.4,45.4,0,1,0,90.8,45.4,45.43,45.43,0,0,0,45.4,0Z" transform="translate(0 0)"/>
  <path d="M 44.8 68.7 L 44.7 68.6 L 43.4 68.6 L 43.2 68.5 L 42.6 68.5 L 42.4 68.4 L 42 68.4 L 41.9 68.3 L 41.4 68.3 L 41.3 68.2 L 41 68.2 L 40.9 68.1 L 40.6 68.1 L 40.5 68 L 40.2 68 L 40.1 67.9 L 39.8 67.9 L 39.7 67.8 L 39.4 67.8 L 39.3 67.7 L 39.2 67.7 L 39.1 67.6 L 38.8 67.6 L 38.7 67.5 L 38.5 67.5 L 38.4 67.4 L 38.3 67.4 L 38.2 67.3 L 38 67.3 L 37.9 67.2 L 37.8 67.2 L 37.7 67.1 L 37.5 67.1 L 37.4 67 L 37.3 67 L 37.2 66.9 L 37.1 66.9 L 36.9 66.8 L 36.8 66.8 L 36.7 66.7 L 36.6 66.7 L 36.4 66.6 L 36.3 66.6 L 36.1 66.4 L 36 66.4 L 35.8 66.3 L 35.7 66.3 L 35.5 66.1 L 35.4 66.1 L 35.3 66 L 35.1 65.9 L 35 65.9 L 34.8 65.7 L 34.7 65.7 L 34.6 65.6 L 34.4 65.5 L 34.3 65.5 L 34 65.2 L 33.9 65.2 L 33.7 65 L 33.5 64.9 L 33.4 64.9 L 33.1 64.6 L 33 64.6 L 32.6 64.2 L 32.5 64.2 L 32.1 63.8 L 31.9 63.7 L 31.8 63.7 L 31 62.9 L 30.9 62.9 L 30.9 62.8 L 29.6 61.5 L 29.6 61.4 L 29 60.8 L 29 60.7 L 28.5 60.2 L 28.5 60.1 L 28.4 59.9 L 28.2 59.7 L 28.2 59.6 L 27.9 59.3 L 27.9 59.2 L 27.7 59 L 27.6 58.8 L 27.6 58.7 L 27.3 58.4 L 27.3 58.3 L 27.2 58.2 L 27.1 58 L 27.1 57.9 L 26.9 57.7 L 26.9 57.6 L 26.8 57.5 L 26.8 57.3 L 26.6 57.1 L 26.6 57 L 26.5 56.9 L 26.5 56.7 L 26.3 56.5 L 26.3 56.4 L 26.2 56.3 L 26.2 56.1 L 26.1 56 L 26.1 55.9 L 26 55.8 L 26 55.7 L 25.9 55.5 L 25.9 55.4 L 25.8 55.3 L 25.8 55.2 L 25.7 55 L 25.7 54.9 L 25.6 54.8 L 25.6 54.7 L 25.5 54.5 L 25.5 54.4 L 25.4 54.3 L 25.4 54.2 L 25.3 54 L 25.3 53.8 L 25.2 53.6 L 25.2 53.5 L 25.1 53.4 L 25.1 53.1 L 25 53 L 25 52.7 L 24.9 52.6 L 24.9 52.4 L 24.8 52.2 L 24.8 51.8 L 24.7 51.7 L 24.7 51.4 L 24.6 51.3 L 24.6 50.8 L 24.5 50.6 L 24.5 50.1 L 24.4 50 L 24.4 49.2 L 24.3 49.1 L 24.3 45.7 L 24.4 45.6 L 24.4 44.8 L 24.5 44.6 L 24.5 44.1 L 24.6 44 L 24.6 43.5 L 24.7 43.3 L 24.7 43.1 L 24.8 42.9 L 24.8 42.5 L 24.9 42.4 L 24.9 42.2 L 25 42 L 25 41.8 L 25.1 41.6 L 25.1 41.4 L 25.2 41.3 L 25.2 41.1 L 25.3 41 L 25.3 40.7 L 25.4 40.6 L 25.4 40.5 L 25.5 40.4 L 25.5 40.2 L 25.6 40.1 L 25.6 40 L 25.7 39.9 L 25.7 39.7 L 25.8 39.6 L 25.8 39.5 L 25.9 39.4 L 25.9 39.2 L 26 39.1 L 26 39 L 26.1 38.9 L 26.1 38.7 L 26.2 38.6 L 26.2 38.5 L 26.3 38.4 L 26.3 38.3 L 26.4 38.1 L 26.5 38 L 26.5 37.9 L 26.6 37.8 L 26.6 37.7 L 26.7 37.5 L 26.8 37.4 L 26.8 37.3 L 26.9 37.2 L 26.9 37.1 L 27 37 L 27.1 36.8 L 27.1 36.7 L 27.3 36.5 L 27.3 36.4 L 27.4 36.3 L 27.5 36.1 L 27.6 36 L 27.6 35.9 L 27.9 35.6 L 27.9 35.5 L 28.1 35.3 L 28.2 35.1 L 28.2 35 L 28.5 34.7 L 28.5 34.6 L 29 34.1 L 29 34 L 29.6 33.4 L 29.6 33.3 L 30.9 32 L 30.9 31.9 L 31.2 31.6 L 31.3 31.6 L 31.9 31 L 32.1 30.9 L 32.2 30.9 L 32.7 30.4 L 32.8 30.4 L 33.2 30 L 33.3 30 L 33.5 29.8 L 33.7 29.7 L 33.8 29.7 L 34.1 29.4 L 34.2 29.4 L 34.4 29.2 L 34.6 29.2 L 34.8 29 L 34.9 29 L 35.1 28.8 L 35.3 28.8 L 35.5 28.6 L 35.6 28.6 L 35.7 28.5 L 35.8 28.5 L 36 28.4 L 36.1 28.3 L 36.2 28.3 L 36.3 28.2 L 36.4 28.2 L 36.6 28.1 L 36.7 28 L 36.8 28 L 36.9 27.9 L 37.1 27.9 L 37.2 27.8 L 37.3 27.8 L 37.4 27.7 L 37.5 27.7 L 37.7 27.6 L 37.8 27.6 L 37.9 27.5 L 38 27.5 L 38.2 27.4 L 38.3 27.4 L 38.4 27.3 L 38.5 27.3 L 38.7 27.2 L 38.9 27.2 L 39.1 27.1 L 39.2 27.1 L 39.3 27 L 39.6 27 L 39.7 26.9 L 40 26.9 L 40.1 26.8 L 40.3 26.8 L 40.5 26.7 L 40.7 26.7 L 40.9 26.6 L 41 26.6 L 41 33.8 L 40.9 33.8 L 40.8 33.9 L 40.7 33.9 L 40.6 34 L 40.3 34 L 40.3 34.1 L 40.1 34.1 L 40 34.2 L 39.9 34.2 L 39.8 34.3 L 39.7 34.3 L 39.6 34.4 L 39.4 34.4 L 39.2 34.6 L 39 34.6 L 38.8 34.8 L 38.6 34.8 L 38.4 35 L 38.3 35 L 38.1 35.2 L 37.9 35.2 L 37.9 35.3 L 37.8 35.3 L 37.7 35.4 L 37.6 35.4 L 37.4 35.6 L 37.3 35.6 L 37.3 35.7 L 37.2 35.7 L 37.1 35.8 L 37 35.8 L 37 35.9 L 36.9 36 L 36.8 36 L 36.6 36.2 L 36.5 36.2 L 36.5 36.3 L 36.4 36.3 L 36.3 36.4 L 36.3 36.5 L 36.2 36.5 L 35.8 36.9 L 35.7 36.9 L 35.7 37 L 35.6 37.1 L 35.5 37.1 L 35.5 37.2 L 35.4 37.2 L 35.3 37.3 L 35.3 37.4 L 35.2 37.4 L 35.1 37.5 L 35.1 37.6 L 35 37.6 L 35 37.7 L 34.9 37.8 L 34.8 37.8 L 34.8 37.9 L 34.4 38.3 L 34.4 38.4 L 34 38.8 L 34 38.9 L 33.9 38.9 L 33.9 39 L 33.8 39.1 L 33.8 39.2 L 33.7 39.2 L 33.7 39.3 L 33.6 39.4 L 33.6 39.5 L 33.5 39.5 L 33.5 39.6 L 33.4 39.7 L 33.4 39.8 L 33.3 39.8 L 33.3 39.9 L 33.2 40 L 33.2 40.1 L 33.1 40.2 L 33.1 40.3 L 33 40.4 L 33 40.5 L 32.9 40.5 L 32.9 40.6 L 32.8 40.7 L 32.8 40.9 L 32.7 40.9 L 32.7 41 L 32.6 41.1 L 32.6 41.3 L 32.5 41.3 L 32.5 41.4 L 32.4 41.5 L 32.4 41.7 L 32.3 41.8 L 32.3 41.9 L 32.2 42 L 32.2 42.2 L 32.1 42.3 L 32.1 42.4 L 32 42.5 L 32 42.7 L 31.9 42.8 L 31.9 43 L 31.8 43.1 L 31.8 43.4 L 31.7 43.4 L 31.7 43.7 L 31.6 43.8 L 31.6 44.1 L 31.5 44.2 L 31.5 44.6 L 31.4 44.7 L 31.4 45.1 L 31.3 45.2 L 31.3 45.9 L 31.2 46 L 31.2 48.8 L 31.3 48.9 L 31.3 49.6 L 31.4 49.7 L 31.4 50.1 L 31.5 50.2 L 31.5 50.6 L 31.6 50.6 L 31.6 51 L 31.7 51.1 L 31.7 51.3 L 31.8 51.4 L 31.8 51.7 L 31.9 51.8 L 31.9 52 L 32 52.1 L 32 52.3 L 32.1 52.4 L 32.1 52.5 L 32.2 52.6 L 32.2 52.8 L 32.3 52.9 L 32.3 53 L 32.4 53.1 L 32.4 53.3 L 32.6 53.5 L 32.6 53.7 L 32.8 53.9 L 32.8 54.1 L 33 54.3 L 33 54.4 L 33.1 54.5 L 33.1 54.6 L 33.2 54.7 L 33.2 54.8 L 33.4 55 L 33.4 55.1 L 33.6 55.3 L 33.6 55.4 L 33.8 55.6 L 33.8 55.7 L 34 55.9 L 34 56 L 34.1 56 L 34.1 56.1 L 34.4 56.4 L 34.4 56.5 L 34.5 56.5 L 34.5 56.6 L 34.6 56.7 L 34.7 56.7 L 34.7 56.8 L 35.1 57.2 L 35.1 57.3 L 35.2 57.3 L 35.3 57.4 L 35.3 57.5 L 35.4 57.5 L 35.5 57.6 L 35.5 57.7 L 35.6 57.7 L 36 58.1 L 36.1 58.1 L 36.1 58.2 L 36.2 58.3 L 36.3 58.3 L 36.3 58.4 L 36.4 58.4 L 36.8 58.8 L 36.9 58.8 L 37.1 59 L 37.2 59 L 37.4 59.2 L 37.5 59.2 L 37.5 59.3 L 37.6 59.3 L 37.7 59.4 L 37.8 59.4 L 38 59.6 L 38.1 59.6 L 38.3 59.8 L 38.4 59.8 L 38.5 59.9 L 38.6 59.9 L 38.7 60 L 38.8 60 L 38.9 60.1 L 39 60.1 L 39.1 60.2 L 39.2 60.2 L 39.3 60.3 L 39.4 60.3 L 39.5 60.4 L 39.6 60.4 L 39.7 60.5 L 39.8 60.5 L 39.9 60.6 L 40.1 60.6 L 40.2 60.7 L 40.3 60.7 L 40.4 60.8 L 40.6 60.8 L 40.7 60.9 L 40.9 60.9 L 41 61 L 41.2 61 L 41.3 61.1 L 41.5 61.1 L 41.6 61.2 L 42 61.2 L 42 61.3 L 42.4 61.3 L 42.5 61.4 L 42.8 61.4 L 42.9 61.5 L 43.5 61.5 L 43.5 61.6 L 44.4 61.6 L 44.5 61.7 L 46.4 61.7 L 46.5 61.6 L 47.4 61.6 L 47.5 61.5 L 48 61.5 L 48.1 61.4 L 48.5 61.4 L 48.5 61.3 L 48.9 61.3 L 49 61.2 L 49.3 61.2 L 49.4 61.1 L 49.7 61.1 L 49.8 61 L 49.9 61 L 50 60.9 L 50.3 60.9 L 50.4 60.8 L 50.5 60.8 L 50.6 60.7 L 50.8 60.7 L 50.9 60.6 L 51 60.6 L 51.1 60.5 L 51.3 60.5 L 51.5 60.3 L 51.7 60.3 L 51.9 60.1 L 52.1 60.1 L 52.3 59.9 L 52.5 59.9 L 52.7 59.7 L 52.8 59.7 L 53 59.5 L 53.1 59.5 L 53.3 59.3 L 53.4 59.3 L 53.6 59.1 L 53.7 59.1 L 53.9 58.9 L 54 58.9 L 54.2 58.7 L 54.3 58.7 L 54.3 58.6 L 54.4 58.5 L 54.5 58.5 L 54.7 58.3 L 54.8 58.3 L 54.8 58.2 L 54.9 58.1 L 55 58.1 L 55 58 L 55.1 58 L 55.2 57.9 L 55.2 57.8 L 55.3 57.8 L 55.5 57.6 L 55.5 57.5 L 55.6 57.5 L 55.7 57.4 L 55.7 57.3 L 55.8 57.3 L 55.9 57.2 L 55.9 57.1 L 56 57.1 L 56 57 L 56.1 56.9 L 56.2 56.9 L 56.2 56.8 L 56.6 56.4 L 56.6 56.3 L 56.7 56.3 L 56.7 56.2 L 57 55.9 L 57 55.8 L 57.1 55.8 L 57.1 55.7 L 57.2 55.6 L 57.2 55.5 L 57.3 55.5 L 57.3 55.4 L 57.4 55.3 L 57.4 55.2 L 57.5 55.2 L 57.5 55.1 L 57.6 55 L 57.6 54.9 L 57.7 54.9 L 57.7 54.8 L 57.8 54.7 L 57.8 54.5 L 57.9 54.5 L 57.9 54.4 L 58 54.3 L 58 54.2 L 58.1 54.2 L 58.1 54 L 58.2 53.9 L 58.2 53.8 L 58.3 53.8 L 58.3 53.6 L 58.4 53.5 L 58.4 53.4 L 58.5 53.4 L 58.5 53.2 L 58.6 53.1 L 58.6 52.9 L 58.7 52.9 L 58.7 52.7 L 58.8 52.6 L 58.8 52.4 L 58.9 52.4 L 58.9 52.2 L 59 52.1 L 59 51.9 L 59.1 51.8 L 59.1 51.6 L 59.2 51.5 L 59.2 51.2 L 59.3 51.2 L 59.3 50.9 L 59.4 50.8 L 59.4 50.5 L 59.5 50.4 L 59.5 49.9 L 59.6 49.8 L 59.6 49.2 L 59.7 49.1 L 59.7 48.2 L 59.8 48.1 L 59.8 46.7 L 59.7 46.6 L 59.7 45.6 L 59.6 45.6 L 59.6 44.9 L 59.5 44.8 L 59.5 44.4 L 59.4 44.3 L 59.4 44 L 59.3 43.9 L 59.3 43.6 L 59.2 43.5 L 59.2 43.3 L 59.1 43.2 L 59.1 42.9 L 59 42.8 L 59 42.7 L 58.9 42.6 L 58.9 42.4 L 58.8 42.3 L 58.8 42.2 L 58.7 42.1 L 58.7 41.9 L 58.6 41.8 L 58.6 41.7 L 58.5 41.6 L 58.5 41.4 L 58.3 41.2 L 58.3 41 L 58.1 40.8 L 58.1 40.6 L 57.9 40.4 L 57.9 40.3 L 57.8 40.2 L 57.8 40.1 L 57.7 40 L 57.7 39.9 L 57.5 39.7 L 57.5 39.6 L 57.3 39.4 L 57.3 39.3 L 57.1 39.1 L 57.1 39 L 56.9 38.8 L 56.9 38.7 L 56.8 38.7 L 56.7 38.6 L 56.7 38.5 L 56.6 38.5 L 56.6 38.4 L 56.5 38.3 L 56.5 38.2 L 56.4 38.2 L 56.3 38.1 L 56.3 38 L 56.2 38 L 56.2 37.9 L 56.1 37.8 L 56 37.8 L 56 37.7 L 55.1 36.8 L 55 36.8 L 55 36.7 L 54.9 36.6 L 54.8 36.6 L 54.8 36.5 L 54.7 36.5 L 54.6 36.4 L 54.6 36.3 L 54.5 36.3 L 54.4 36.2 L 54.3 36.2 L 54.3 36.1 L 54.2 36.1 L 53.9 35.8 L 53.8 35.8 L 53.8 35.7 L 53.7 35.7 L 53.6 35.6 L 53.5 35.6 L 53.5 35.5 L 53.4 35.5 L 53.3 35.4 L 53.2 35.4 L 53.2 35.3 L 53.1 35.3 L 53 35.2 L 52.9 35.2 L 52.8 35.1 L 52.7 35.1 L 52.5 34.9 L 52.4 34.9 L 52.3 34.8 L 52.2 34.8 L 52.1 34.7 L 52 34.7 L 51.9 34.6 L 51.8 34.6 L 51.7 34.5 L 51.6 34.5 L 51.5 34.4 L 51.4 34.4 L 51.3 34.3 L 51.1 34.3 L 51 34.2 L 50.9 34.2 L 50.9 34.1 L 50.7 34.1 L 50.6 34 L 50.4 34 L 50.3 33.9 L 50.1 33.9 L 50 33.8 L 49.9 33.8 L 49.9 26.5 L 50 26.6 L 50.3 26.6 L 50.4 26.7 L 50.7 26.7 L 50.8 26.8 L 51.1 26.8 L 51.2 26.9 L 51.4 26.9 L 51.6 27 L 51.8 27 L 52 27.1 L 52.1 27.1 L 52.2 27.2 L 52.5 27.2 L 52.6 27.3 L 52.7 27.3 L 52.8 27.4 L 53 27.4 L 53.1 27.5 L 53.2 27.5 L 53.3 27.6 L 53.5 27.6 L 53.6 27.7 L 53.7 27.7 L 53.8 27.8 L 54 27.8 L 54.1 27.9 L 54.2 27.9 L 54.3 28 L 54.4 28 L 54.6 28.1 L 54.7 28.2 L 54.8 28.2 L 54.9 28.3 L 55 28.3 L 55.2 28.4 L 55.3 28.5 L 55.4 28.5 L 55.5 28.6 L 55.6 28.6 L 55.8 28.7 L 55.9 28.8 L 56 28.8 L 56.2 29 L 56.3 29 L 56.5 29.1 L 56.6 29.2 L 56.7 29.2 L 56.9 29.4 L 57 29.4 L 57.1 29.5 L 57.3 29.6 L 57.4 29.7 L 57.5 29.7 L 57.8 30 L 57.9 30 L 58.3 30.4 L 58.5 30.4 L 59 30.9 L 59.1 30.9 L 59.8 31.6 L 59.9 31.6 L 60.9 32.6 L 60.9 32.7 L 61.8 33.6 L 61.8 33.7 L 62.3 34.2 L 62.3 34.3 L 62.7 34.7 L 62.7 34.8 L 63 35.1 L 63.1 35.3 L 63.1 35.4 L 63.4 35.7 L 63.4 35.8 L 63.6 36 L 63.6 36.1 L 63.7 36.3 L 63.9 36.5 L 63.9 36.6 L 64.1 36.8 L 64.1 37 L 64.2 37.1 L 64.2 37.2 L 64.4 37.4 L 64.4 37.5 L 64.5 37.7 L 64.6 37.8 L 64.6 37.9 L 64.7 38 L 64.7 38.1 L 64.8 38.3 L 64.9 38.4 L 64.9 38.5 L 65 38.6 L 65 38.7 L 65.1 38.9 L 65.1 39 L 65.2 39.1 L 65.2 39.2 L 65.3 39.4 L 65.3 39.5 L 65.4 39.6 L 65.4 39.7 L 65.5 39.9 L 65.5 40 L 65.6 40.1 L 65.6 40.2 L 65.7 40.4 L 65.7 40.6 L 65.8 40.7 L 65.8 40.9 L 65.9 41 L 65.9 41.3 L 66 41.4 L 66 41.5 L 66.1 41.6 L 66.1 41.9 L 66.2 42 L 66.2 42.3 L 66.3 42.4 L 66.3 42.7 L 66.4 42.8 L 66.4 43.2 L 66.5 43.3 L 66.5 43.7 L 66.6 43.9 L 66.6 44.4 L 66.7 44.5 L 66.7 45.3 L 66.8 45.4 L 66.8 49.3 L 66.7 49.5 L 66.7 50.3 L 66.6 50.4 L 66.6 50.9 L 66.5 51 L 66.5 51.4 L 66.4 51.6 L 66.4 52 L 66.3 52.1 L 66.3 52.4 L 66.2 52.5 L 66.2 52.7 L 66.1 52.9 L 66.1 53.1 L 66 53.3 L 66 53.4 L 65.9 53.5 L 65.9 53.8 L 65.8 53.9 L 65.8 54 L 65.7 54.2 L 65.7 54.4 L 65.6 54.5 L 65.6 54.7 L 65.5 54.8 L 65.5 54.9 L 65.4 55 L 65.4 55.2 L 65.3 55.3 L 65.3 55.4 L 65.2 55.5 L 65.2 55.7 L 65.1 55.8 L 65.1 55.9 L 65 56 L 65 56.1 L 64.9 56.3 L 64.9 56.4 L 64.7 56.6 L 64.7 56.7 L 64.6 56.9 L 64.6 57 L 64.4 57.2 L 64.4 57.3 L 64.3 57.5 L 64.2 57.6 L 64.2 57.7 L 64.1 57.8 L 64.1 57.9 L 64 58 L 63.9 58.2 L 63.9 58.3 L 63.6 58.6 L 63.6 58.7 L 63.5 58.8 L 63.4 59 L 63.4 59.1 L 63.1 59.4 L 63.1 59.5 L 62.7 59.9 L 62.7 60.1 L 62.3 60.5 L 62.3 60.6 L 61.8 61.1 L 61.8 61.2 L 60.9 62.1 L 60.9 62.2 L 60.2 62.9 L 60.1 62.9 L 59.3 63.7 L 59.2 63.7 L 58.7 64.2 L 58.6 64.2 L 58.5 64.3 L 58.3 64.4 L 58.1 64.6 L 58 64.6 L 57.7 64.9 L 57.6 64.9 L 57.3 65.2 L 57.1 65.2 L 56.8 65.5 L 56.7 65.5 L 56.5 65.7 L 56.3 65.7 L 56.1 65.9 L 56 65.9 L 55.8 66.1 L 55.6 66.1 L 55.4 66.3 L 55.3 66.3 L 55.2 66.4 L 55 66.4 L 54.8 66.6 L 54.7 66.6 L 54.6 66.7 L 54.4 66.7 L 54.3 66.8 L 54.2 66.8 L 54.1 66.9 L 54 66.9 L 53.8 67 L 53.7 67 L 53.6 67.1 L 53.5 67.1 L 53.3 67.2 L 53.2 67.2 L 53.1 67.3 L 53 67.3 L 52.8 67.4 L 52.7 67.4 L 52.6 67.5 L 52.5 67.5 L 52.3 67.6 L 52.1 67.6 L 52 67.7 L 51.8 67.7 L 51.7 67.8 L 51.4 67.8 L 51.3 67.9 L 51.1 67.9 L 50.9 68 L 50.7 68 L 50.5 68.1 L 50.3 68.1 L 50.1 68.2 L 49.9 68.2 L 49.8 68.3 L 49.2 68.3 L 49.1 68.4 L 48.7 68.4 L 48.6 68.5 L 47.9 68.5 L 47.8 68.6 L 46.4 68.6 L 46.3 68.7 Z" class="cls-3"/>
  <rect class="cls-4" x="42.16" y="20.496" width="6.478" height="16.424" style="stroke: rgb(255, 255, 255); stroke-width: 0;"/>
</svg>