<?xml version="1.0" encoding="utf-8"?>
<svg width="50.654998779296875" height="41.10499572753906" viewBox="159.77 162.382 50.655 41.105" xmlns="http://www.w3.org/2000/svg">
  <path class="st1" d="M 172.228 168.712 C 179.076 161.734 189.761 160.89 197.513 166.255 L 201.277 162.424 L 205.718 178.987 L 189.461 174.463 L 192.922 170.935 C 187.732 168.021 181.033 168.787 176.668 173.312 C 171.325 178.755 171.325 187.574 176.668 193.019 C 182.013 198.462 190.665 198.462 196.007 193.019 C 197.439 191.563 198.491 189.875 199.169 187.88 L 205.113 190.028 C 204.138 192.866 202.556 195.319 200.448 197.467 C 192.697 205.365 180.055 205.365 172.228 197.467 C 164.477 189.49 164.477 176.608 172.228 168.712 L 172.228 168.712 Z" style="fill: rgb(41, 172, 228);"/>
</svg>