<?xml version="1.0" encoding="utf-8"?>
<svg id="Layer_1" style="enable-background:new 0 0 90.8 90.8;" x="0px" y="0px" viewBox="0 0 90.8 90.8" xmlns="http://www.w3.org/2000/svg">
  <style type="text/css">
	.st0{fill:#FFFFFF;}
	.st1{fill:#29ADE4;}
</style>
  <path class="st1" d="M 45.4 4 C 68.2 4 86.8 22.6 86.8 45.4 C 86.8 68.2 68.2 86.7 45.4 86.7 C 22.6 86.7 4 68.1 4 45.3 C 4 22.5 22.6 4 45.4 4 M 45.4 0 C 20.4 0 0 20.3 0 45.4 C 0 70.5 20.3 90.8 45.4 90.8 C 70.5 90.8 90.8 70.5 90.8 45.4 C 90.8 20.3 70.4 0 45.4 0 L 45.4 0 Z"/>
  <g>
    <path class="st1" d="M27,26.9c9.1-9.1,23.3-10.2,33.6-3.2l5-5l5.9,21.6l-21.6-5.9l4.6-4.6C47.6,26,38.7,27,32.9,32.9&#10;&#9;&#9;c-7.1,7.1-7.1,18.6,0,25.7c7.1,7.1,18.6,7.1,25.7,0c1.9-1.9,3.3-4.1,4.2-6.7l7.9,2.8c-1.3,3.7-3.4,6.9-6.2,9.7&#10;&#9;&#9;c-10.3,10.3-27.1,10.3-37.5,0C16.7,54,16.7,37.2,27,26.9L27,26.9z"/>
  </g>
</svg>