<?xml version="1.0" encoding="utf-8"?>
<svg id="Layer_1" style="enable-background:new 0 0 90.8 90.8;" x="0px" y="0px" viewBox="0 0 90.8 90.8" xmlns="http://www.w3.org/2000/svg">
  <style type="text/css">
	.st0{fill:#FFFFFF;}
	.st1{fill:#29ADE4;}
	.st2{fill:#27AAE1;}
	.st3{fill:#27AAE1;stroke:#FFFFFF;stroke-miterlimit:10;}
</style>
  <path class="st1" d="M 45.2 4.1 C 68 4.1 86.6 22.7 86.6 45.5 C 86.6 68.3 68 86.9 45.2 86.9 C 22.4 86.9 3.8 68.3 3.8 45.5 C 3.8 22.7 22.4 4.1 45.2 4.1 M 45.2 0.1 C 20.2 0.1 -0.2 20.4 -0.2 45.5 C -0.2 70.6 20.1 90.9 45.2 90.9 C 70.3 90.9 90.6 70.6 90.6 45.5 C 90.6 20.4 70.2 0.1 45.2 0.1 L 45.2 0.1 Z"/>
  <g>
    <path class="st2" d="M68.2,25.7H22.1c-0.7,0-1.3,0.6-1.3,1.3v30.3v4.5v3.5h13.2v-2.2h22.4v2.1h13.2v-3.5v-4.5V27&#10;&#9;&#9;C69.6,26.3,69,25.7,68.2,25.7z"/>
    <path class="st3" d="M63.7,58.1h-37c-0.9,0-1.6-0.7-1.6-1.6V32c0-0.9,0.7-1.6,1.6-1.6h37c0.9,0,1.6,0.7,1.6,1.6v24.4&#10;&#9;&#9;C65.3,57.4,64.6,58.1,63.7,58.1z"/>
    <g>
      <path class="st3" d="M66.4,40.7h-3.7c-0.2,0-0.5-0.2-0.5-0.5v-2c0-0.2,0.2-0.5,0.5-0.5h3.7c0.2,0,0.5,0.2,0.5,0.5v2&#10;&#9;&#9;&#9;C66.9,40.4,66.7,40.7,66.4,40.7z"/>
      <path class="st3" d="M66.4,50.8h-3.7c-0.2,0-0.5-0.2-0.5-0.5v-1.9c0-0.2,0.2-0.5,0.5-0.5h3.7c0.2,0,0.5,0.2,0.5,0.5v1.9&#10;&#9;&#9;&#9;C66.9,50.6,66.7,50.8,66.4,50.8z"/>
    </g>
    <g>
      <ellipse transform="matrix(0.7071 -0.7071 0.7071 0.7071 -20.4742 35.5826)" class="st3" cx="32.7" cy="42.5" rx="3.3" ry="3.3"/>
      <path class="st3" d="M39,48.8L39,48.8c-0.7,0.7-1.9,0.7-2.6,0l-4.7-4.7c-0.7-0.7-0.7-1.9,0-2.6l0,0c0.7-0.7,1.9-0.7,2.6,0l4.7,4.7&#10;&#9;&#9;&#9;C39.7,46.9,39.7,48,39,48.8z"/>
    </g>
  </g>
</svg>