<?xml version="1.0" encoding="utf-8"?>
<svg width="50.654998779296875" height="41.10499572753906" viewBox="159.77 162.382 50.655 41.105" xmlns="http://www.w3.org/2000/svg">
  <path class="st2" d="M 208.971 162.382 L 161.119 162.382 C 160.393 162.382 159.77 163.005 159.77 163.731 L 159.77 195.183 L 159.77 199.854 L 159.77 203.487 L 173.472 203.487 L 173.472 201.203 L 196.723 201.203 L 196.723 203.383 L 210.425 203.383 L 210.425 199.75 L 210.425 195.079 L 210.425 163.731 C 210.425 163.005 209.802 162.382 208.971 162.382 Z" style="fill: rgb(39, 169, 225);" transform="matrix(1, 0, 0, 1, 0, -2.842170943040401e-14)"/>
  <path class="st3" d="M 204.3 196.013 L 165.894 196.013 C 164.96 196.013 164.233 195.287 164.233 194.352 L 164.233 168.921 C 164.233 167.987 164.96 167.261 165.894 167.261 L 204.3 167.261 C 205.235 167.261 205.961 167.987 205.961 168.921 L 205.961 194.249 C 205.961 195.287 205.235 196.013 204.3 196.013 Z" style="fill: rgb(39, 169, 225); stroke: rgb(255, 255, 255);" transform="matrix(1, 0, 0, 1, 0, -2.842170943040401e-14)"/>
  <g transform="matrix(1.0380029678344729, 0, 0, 1.0380029678344729, 138.17913818359375, 135.7052764892578)">
    <path class="st3" d="M66.4,40.7h-3.7c-0.2,0-0.5-0.2-0.5-0.5v-2c0-0.2,0.2-0.5,0.5-0.5h3.7c0.2,0,0.5,0.2,0.5,0.5v2&#10;&#9;&#9;&#9;C66.9,40.4,66.7,40.7,66.4,40.7z" style="fill: rgb(39, 169, 225); stroke: rgb(255, 255, 255);"/>
    <path class="st3" d="M66.4,50.8h-3.7c-0.2,0-0.5-0.2-0.5-0.5v-1.9c0-0.2,0.2-0.5,0.5-0.5h3.7c0.2,0,0.5,0.2,0.5,0.5v1.9&#10;&#9;&#9;&#9;C66.9,50.6,66.7,50.8,66.4,50.8z" style="fill: rgb(39, 169, 225); stroke: rgb(255, 255, 255);"/>
  </g>
  <g transform="matrix(1.0380029678344729, 0, 0, 1.0380029678344729, 138.17913818359375, 135.7052764892578)">
    <ellipse transform="matrix(0.7071 -0.7071 0.7071 0.7071 -20.4742 35.5826)" class="st3" cx="32.7" cy="42.5" rx="3.3" ry="3.3" style="fill: rgb(39, 169, 225); stroke: rgb(255, 255, 255);"/>
    <path class="st3" d="M39,48.8L39,48.8c-0.7,0.7-1.9,0.7-2.6,0l-4.7-4.7c-0.7-0.7-0.7-1.9,0-2.6l0,0c0.7-0.7,1.9-0.7,2.6,0l4.7,4.7&#10;&#9;&#9;&#9;C39.7,46.9,39.7,48,39,48.8z" style="fill: rgb(39, 169, 225); stroke: rgb(255, 255, 255);"/>
  </g>
</svg>