<svg width="462" height="573" viewBox="0 0 462 573" fill="none" xmlns="http://www.w3.org/2000/svg">
<path d="M127.801 168.346C127.801 104.228 174.091 52.0611 230.993 52.0611C287.896 52.0611 334.2 104.228 334.2 168.346V269.847H127.801V168.346ZM75.9599 269.847H386.04V154.984C386.04 69.5241 316.489 0 230.993 0C145.511 0 75.9599 69.5241 75.9599 154.984V269.847ZM426.907 269.847H75.9599H35.0911C15.7102 269.847 0 285.554 0 304.929V537.918C0 557.295 15.7102 573 35.0911 573H426.907C446.284 573 462 557.295 462 537.918V304.929C462 285.554 446.284 269.847 426.907 269.847ZM270.798 497.159H191.2L207.312 417.285C197.585 410.032 191.2 398.542 191.2 385.476C191.2 363.504 209.019 345.688 231 345.688C252.979 345.688 270.798 363.504 270.798 385.476C270.798 398.542 264.413 410.032 254.683 417.285L270.798 497.159Z" fill="white" style="fill:white;fill-opacity:1;"/>
</svg>
